<svg xmlns="http://www.w3.org/2000/svg" width="64" height="64" viewBox="0 0 64 64" fill="none">
  <defs>
    <linearGradient id="plutus-bg" x1="0" y1="0" x2="1" y2="1">
      <stop offset="0" stop-color="#002C51" />
      <stop offset="1" stop-color="#001f3a" />
    </linearGradient>
  </defs>

  <!-- Background -->
  <rect x="1" y="1" width="62" height="62" rx="14" fill="url(#plutus-bg)" />
  <rect x="1" y="1" width="62" height="62" rx="14" fill="none" stroke="#00C2B9" stroke-opacity="0.2" />

  <!-- Plutus: Cornucopia (Horn of abundance) -->
  <g fill="#00C2B9">
    <!-- Horn silhouette with hollow opening -->
    <path
      fill-rule="evenodd"
      d="M19 44C19 30 30 19 44 19C51 19 55 24 55 31C55 43 44 54 32 54C25 54 19 50 19 44ZM27 42C27 35 33 29 40 29C44 29 47 32 47 36C47 43 39 48 33 48C29 48 27 45.5 27 42Z"
    />

    <!-- Abundance (coins) -->
    <circle cx="18" cy="20" r="4" />
    <circle cx="28" cy="15" r="3" opacity="0.85" />
    <circle cx="30" cy="23" r="2.5" opacity="0.7" />
  </g>
</svg>
