<?xml version="1.0" encoding="iso-8859-1"?>
<svg width="26" height="28" viewBox="0 0 26 28" fill="none" xmlns="http://www.w3.org/2000/svg">
<path fill-rule="evenodd" clip-rule="evenodd" d="M13.0801 0.5C14.9948 0.5 16.5587 2.00763 16.6465 3.89868C19.9824 5.30943 22.2289 8.60056 22.2289 12.3261V17.4672C22.663 17.5005 23.3124 18.3525 23.8475 19.0544C24.0419 19.3095 24.2213 19.5447 24.3697 19.7137C24.4365 19.7897 24.4999 19.8614 24.5601 19.9295C25.2656 20.7271 25.5241 21.0194 25.5241 21.8688V23.2603H22.0013L17.3198 23.2603C17.3198 25.6018 15.4216 27.5 13.0801 27.5C10.7386 27.5 8.84041 25.6018 8.84041 23.2603L4.1589 23.2603H0.476333C0.476333 23.2603 0.492365 22.277 0.476333 21.8688C0.449951 21.1972 1.53758 19.7137 1.53758 19.7137L3.93135 17.4672V12.3261C3.93135 8.59978 6.17773 5.30915 9.51375 3.89858C9.60165 2.00716 11.167 0.5 13.0801 0.5ZM11.0718 23.2603C11.0718 24.3695 11.9709 25.2686 13.0801 25.2686C14.1892 25.2686 15.0883 24.3695 15.0883 23.2603H11.0718ZM10.9659 5.73768C8.12677 6.64736 6.16269 9.29637 6.16269 12.3262V17.6811C6.16269 18.3037 5.54728 18.9676 5.54728 18.9676L4.50674 19.7719L2.59483 21.029H4.15884H22.0012H23.512C23.512 21.029 22.826 20.626 22.0012 19.9478C21.8071 19.7882 21.5934 19.6397 21.38 19.4915C20.6868 19.01 19.9974 18.5312 19.9974 17.6811V12.3262C19.9974 9.29714 18.0332 6.6475 15.1941 5.73771L14.4189 5.48929V4.06653C14.4189 3.33056 13.8192 2.73147 13.08 2.73147C12.3418 2.73147 11.7412 3.33073 11.7412 4.06653V5.48927L10.9659 5.73768Z" fill="#161D26"/>
</svg>
