<?xml version="1.0" encoding="UTF-8"?>
<svg id="Logos" xmlns="http://www.w3.org/2000/svg" version="1.1" viewBox="0 0 144 32">
  <!-- Generator: Adobe Illustrator 29.0.1, SVG Export Plug-In . SVG Version: 2.1.0 Build 192)  -->
  <defs>
    <style>
      .st0 {
        fill: #0f141a;
      }
    </style>
  </defs>
  <path class="st0" d="M87.2826,6.311c0-.2047.0441-.3471.1315-.4277.0879-.0803.2269-.1205.417-.1205h1.5789c.3362,0,.5409.1609.6139.4822l.1536.5703c.4387-.424.9681-.7602,1.5898-1.0088.6215-.2485,1.2536-.3729,1.897-.3729,1.418,0,2.5402.519,3.3661,1.557.8262,1.0382,1.2395,2.4418,1.2395,4.2108,0,1.2137-.205,2.2734-.6142,3.1799-.4094.9068-.9649,1.6047-1.6667,2.0942-.7018.49-1.5061.7347-2.4126.7347-.5996,0-1.1697-.0952-1.7106-.2851-.5409-.1899-1.0012-.453-1.3812-.7894v4.8026c0,.2045-.0409.3474-.1207.4277-.0806.0801-.2232.1207-.4279.1207h-2.1049c-.1901,0-.3291-.0407-.417-.1207-.0874-.0803-.1315-.2232-.1315-.4277V6.311ZM92.6336,7.8461c-.7602,0-1.4771.1974-2.149.5923v5.7675c.6429.3946,1.3593.592,2.149.592.8186,0,1.4216-.2775,1.8094-.8332.387-.5555.5811-1.4328.5811-2.6317,0-1.2132-.1901-2.0978-.5701-2.6536-.3805-.5555-.9871-.8332-1.8203-.8332"/>
  <path class="st0" d="M103.4426,7.4294c.5847-.6431,1.1366-1.1,1.6555-1.3707.5192-.2704,1.0711-.4055,1.656-.4055h.307c.2047,0,.3508.0402.4387.1205.0876.0803.1315.223.1315.4275v1.8423c0,.1901-.0404.3289-.1207.4167-.0806.0879-.223.1317-.4275.1317-.1025,0-.2339-.0073-.3948-.0222-.1609-.0144-.3656-.0217-.6139-.0217-.3364,0-.7456.0475-1.2281.1424-.4825.0952-.8919.2159-1.2281.362v7.3683c0,.1904-.0407.3291-.1205.4167-.0806.0876-.2235.1317-.4279.1317h-2.1049c-.1904,0-.3294-.0441-.417-.1317-.0876-.0876-.1317-.2264-.1317-.4167V6.3109c0-.2047.0441-.3471.1317-.4277.0876-.0801.2266-.1205.417-.1205h1.5786c.3364,0,.5409.1611.6142.4825l.2851,1.1843Z"/>
  <path class="st0" d="M110.7808,4.0303c-.556,0-1.0017-.1538-1.3376-.4608-.3369-.307-.5044-.7237-.5044-1.2498,0-.5265.1675-.9433.5044-1.2502.3359-.307.7816-.4606,1.3376-.4606.5552,0,1.0012.1536,1.3376.4606.3359.307.5044.7237.5044,1.2502,0,.526-.1684.9428-.5044,1.2498-.3364.307-.7824.4608-1.3376.4608M109.1798,6.311c0-.2047.0438-.3471.1314-.4277.0879-.0803.2269-.1205.4167-.1205h2.1054c.2045,0,.3471.0402.4275.1205.0803.0806.121.223.121.4277v10.1097c0,.1901-.0407.3291-.121.4165-.0803.0879-.223.1317-.4275.1317h-2.1054c-.1899,0-.3289-.0438-.4167-.1317-.0876-.0874-.1314-.2264-.1314-.4165V6.311Z"/>
  <path class="st0" d="M118.013,6.8372c.7748-.5117,1.473-.8734,2.0944-1.0854.6212-.212,1.261-.3182,1.9189-.3182,1.3157,0,2.2439.4681,2.785,1.4036.7454-.4968,1.4472-.8554,2.1054-1.0745.6575-.2196,1.3376-.3291,2.0394-.3291,1.0231,0,1.8164.2851,2.3792.8554.5628.5701.8444,1.3671.8444,2.3902v7.7414c0,.1901-.0407.3291-.1205.4167-.0806.0876-.2235.1314-.4279.1314h-2.1049c-.1904,0-.3293-.0438-.4167-.1314-.0879-.0876-.1319-.2266-.1319-.4167v-7.0396c0-.9942-.446-1.4912-1.3376-1.4912-.7894,0-1.5867.1901-2.3904.5703v7.9605c0,.1901-.0404.3291-.1205.4167-.0806.0876-.223.1314-.4277.1314h-2.1054c-.1901,0-.3289-.0438-.4165-.1314-.0879-.0876-.1314-.2266-.1314-.4167v-7.0396c0-.9942-.4464-1.4912-1.3376-1.4912-.8191,0-1.6229.1974-2.4126.592v7.9389c0,.1901-.0407.3291-.1205.4167-.0806.0876-.2232.1314-.4279.1314h-2.1049c-.1904,0-.3294-.0438-.417-.1314-.0874-.0876-.1315-.2266-.1315-.4167V6.311c0-.2047.0441-.3471.1315-.4277.0876-.0803.2266-.1205.417-.1205h1.5786c.3364,0,.5411.1609.6142.4822l.1755.5923Z"/>
  <path class="st0" d="M139.1098,12.3857c-.8332,0-1.5574-.0803-2.1714-.2412.0879.9795.3839,1.6813.8883,2.1052.5044.4243,1.2683.6361,2.2919.6361.4092,0,.8077-.0256,1.1952-.0769.3868-.0511.9245-.1643,1.6115-.3398.0441-.0144.0879-.0253.1319-.0329.0438-.0073.0803-.011.1095-.011.2483,0,.3727.1682.3727.5044v1.0088c0,.2339-.0329.3985-.0983.4934-.066.0952-.194.1792-.3839.2522-1.0677.4092-2.2006.6139-3.3994.6139-1.813,0-3.2052-.4966-4.1774-1.4912-.9727-.9942-1.4584-2.4194-1.4584-4.2763,0-1.9004.4966-3.3917,1.491-4.4739.9942-1.0815,2.3758-1.6227,4.1448-1.6227,1.36,0,2.4233.3289,3.1911.9869.7673.658,1.1511,1.535,1.1511,2.6317s-.4131,1.9265-1.2388,2.489c-.8262.563-2.0433.8444-3.6514.8444M139.4168,7.6487c-1.4036,0-2.215.8629-2.4343,2.5879.5847.1171,1.2351.1755,1.9518.1755.7454,0,1.2863-.1132,1.6227-.3401.3362-.2266.5044-.5738.5044-1.0419,0-.9209-.548-1.3814-1.6446-1.3814"/>
  <path class="st0" d="M58.1236,25.1138c-5.2361,2.1882-10.9262,3.2468-16.1027,3.2468-7.6738,0-15.1036-2.0745-21.1116-5.5192-.5256-.3011-.9155.23-.4781.6193,5.5686,4.954,12.9272,7.9303,21.0987,7.9303,5.8308,0,12.6017-1.806,17.2726-5.202.7724-.5626.1105-1.4051-.6789-1.0752"/>
  <path class="st0" d="M54.9952,23.132c-.4092.2836-.3386.6755.1151.6217,1.4985-.1772,4.8325-.573,5.4274.1792.5947.7522-.6611,3.8517-1.222,5.2361-.1702.4182.1945.5874.5781.2707,2.4927-2.0611,3.1375-6.3792,2.6268-7.0029-.5066-.6181-4.8651-1.1512-7.5255.6952"/>
  <path class="st0" d="M61.7578,11.5156c.824-.5611,1.2366-1.388,1.2366-2.481s-.3834-1.9671-1.1492-2.6229c-.7661-.6555-1.8276-.9839-3.1847-.9839-1.7656,0-3.1448.5399-4.137,1.6178-.9927,1.0786-1.4883,2.565-1.4883,4.4591,0,1.851.4847,3.2714,1.4557,4.2624.9703.991,2.3598,1.4859,4.1696,1.4859,1.1962,0,2.3274-.2037,3.3926-.6117.1894-.0725.3172-.1565.3832-.2515.0655-.0944.0981-.2588.0981-.4917v-1.0054c0-.335-.1239-.5029-.372-.5029-.0292,0-.0657.0039-.1093.0107-.0438.0078-.0874.0185-.1317.0331-.6857.1745-1.222.2877-1.6081.3388-.387.0511-.7846.0764-1.193.0764-1.0217,0-1.7843-.2108-2.2875-.6341-.5036-.4223-.7992-1.1217-.8866-2.0978.6127.1602,1.3357.2403,2.1672.2403,1.6049,0,2.8196-.2807,3.6443-.8415M55.9901,10.2153c.2186-1.7193,1.0287-2.5793,2.4299-2.5793,1.094,0,1.6412.4591,1.6412,1.3771,0,.4664-.1677.8123-.5032,1.0382-.3359.2259-.8758.3391-1.6198.3391-.7154,0-1.3644-.0587-1.9481-.175"/>
  <path class="st0" d="M22.5187,5.7564h-2.0806c-.1879,0-.3252.0402-.4119.1205-.0867.0803-.13.2227-.13.427v7.8196c-.7225.4674-1.4593.7011-2.2106.7011-1.0114,0-1.517-.5915-1.517-1.7743v-6.7463c0-.2042-.0397-.3466-.1193-.427-.0796-.0803-.2203-.1205-.4226-.1205h-2.0806c-.1877,0-.325.0402-.4119.1205-.0867.0803-.13.2227-.13.427v7.6443c0,1.0368.2746,1.851.8238,2.4423.5489.5915,1.3147.887,2.2972.887,1.4014,0,2.7451-.5036,4.0309-1.5112l.1952.7008c.0433.1753.112.2994.2059.3724.094.073.2274.1095.4009.1095h1.5604c.2023,0,.3432-.0438.4226-.1315.0794-.0876.1193-.2264.1193-.4163V6.3039c0-.2042-.0399-.3466-.1193-.427-.0794-.0803-.2203-.1205-.4226-.1205"/>
  <path class="st0" d="M6.3067,5.4279c-.5489,0-1.1052.1059-1.6687.3177s-1.0548.5-1.4737.8651V1.2882c0-.2045-.0397-.3469-.1193-.4272-.0794-.0803-.2203-.1205-.4226-.1205H.5419c-.1877,0-.325.0402-.4116.1205-.0869.0803-.1302.2227-.1302.4272v15.1134c0,.1899.0433.3284.1302.416.0867.0876.224.1314.4116.1314h1.6037c.3325,0,.5346-.1607.6069-.4817l.1517-.6134c.3902.4236.8741.7522,1.4523.9856.5779.2337,1.1991.3505,1.8637.3505.8958,0,1.6906-.2446,2.3841-.7337.6935-.4893,1.2424-1.1865,1.647-2.0918.4046-.9055.6069-1.964.6069-3.176,0-1.767-.4082-3.1687-1.2244-4.2057-.8165-1.0368-1.9253-1.555-3.3269-1.555M7.0762,13.9483c-.3829.555-.9788.8323-1.788.8323-.7802,0-1.4883-.1969-2.1239-.5913v-5.7607c.6646-.3941,1.3727-.5913,2.1239-.5913.8235,0,1.4231.2773,1.7989.8323.3756.5548.5633,1.4384.5633,2.6502,0,1.1974-.1913,2.0737-.5742,2.6285"/>
  <path class="st0" d="M30.8411,10.5313l-1.647-.6789c-.5348-.2191-.8851-.4053-1.0511-.5587-.1663-.1534-.2493-.3542-.2493-.6022,0-.3213.137-.555.4116-.7011.2746-.1461.7079-.2188,1.3004-.2188.7948,0,1.4954.0874,2.1022.2627.3179.0876.5202.1315.6069.1315.2456,0,.3685-.168.3685-.5036v-.964c0-.2334-.0326-.3978-.0976-.4927s-.1913-.1789-.3793-.2519c-.8958-.3503-1.8566-.5256-2.8824-.5256-1.315,0-2.3661.3028-3.1533.909-.7875.6059-1.1813,1.4055-1.1813,2.3985,0,.7885.1952,1.4382.5852,1.9494.3902.511,1.026.9418,1.9072,1.2923l1.6906.6789c.5056.1899.8415.3651,1.0075.5258.1663.1604.2493.3868.2493.6789,0,.73-.52,1.0952-1.5604,1.0952-.5202,0-1.0728-.0438-1.658-.1315s-1.1161-.2118-1.593-.3724c-.13-.0438-.231-.0657-.3033-.0657-.2456,0-.3685.168-.3685.5039v.9856c0,.2191.029.3761.0869.471.0577.0949.1877.186.39.2736,1.0258.4528,2.1818.6792,3.4676.6792,1.3294,0,2.4021-.3323,3.2183-.9966.8165-.6646,1.2247-1.537,1.2247-2.6176,0-.7739-.1916-1.4019-.5745-1.8836-.3829-.482-1.0221-.9053-1.918-1.2704"/>
  <path class="st0" d="M80.6239,10.5313l-1.647-.6789c-.5348-.2191-.8851-.4053-1.0511-.5587-.1663-.1534-.2495-.3542-.2495-.6022,0-.3213.1373-.555.4119-.7011.2746-.1461.7081-.2188,1.3004-.2188.7948,0,1.4954.0874,2.1022.2627.3179.0876.5202.1315.6069.1315.2456,0,.3685-.168.3685-.5036v-.964c0-.2334-.0326-.3978-.0976-.4927s-.1913-.1789-.3793-.2519c-.8958-.3503-1.8566-.5256-2.8824-.5256-1.315,0-2.3661.3028-3.1533.909-.7875.6059-1.1813,1.4055-1.1813,2.3985,0,.7885.195,1.4382.5852,1.9494.3902.511,1.0258.9418,1.9072,1.2923l1.6906.6789c.5056.1899.8415.3651,1.0075.5258.1663.1604.2493.3868.2493.6789,0,.73-.52,1.0952-1.5604,1.0952-.5202,0-1.0728-.0438-1.658-.1315-.5852-.0876-1.1161-.2118-1.593-.3724-.13-.0438-.231-.0657-.3033-.0657-.2456,0-.3685.168-.3685.5039v.9856c0,.2191.029.3761.0867.471.0579.0949.1879.186.3902.2736,1.0258.4528,2.1818.6792,3.4676.6792,1.3294,0,2.4021-.3323,3.2183-.9966.8165-.6646,1.2247-1.537,1.2247-2.6176,0-.7739-.1916-1.4019-.5745-1.8836-.3829-.482-1.0221-.9053-1.918-1.2704"/>
  <path class="st0" d="M70.351,10.5313l-1.647-.6789c-.5348-.2191-.8851-.4053-1.0511-.5587-.1663-.1534-.2493-.3542-.2493-.6022,0-.3213.1373-.555.4116-.7011.2746-.1461.7081-.2188,1.3004-.2188.7948,0,1.4954.0874,2.1025.2627.3177.0876.52.1315.6066.1315.2456,0,.3685-.168.3685-.5036v-.964c0-.2334-.0326-.3978-.0976-.4927s-.1916-.1789-.3793-.2519c-.8958-.3503-1.8566-.5256-2.8824-.5256-1.315,0-2.3659.3028-3.1533.909-.7875.6059-1.1811,1.4055-1.1811,2.3985,0,.7885.195,1.4382.585,1.9494.3902.511,1.026.9418,1.9072,1.2923l1.6904.6789c.5058.1899.8418.3651,1.008.5258.166.1604.249.3868.249.6789,0,.73-.52,1.0952-1.5604,1.0952-.52,0-1.0728-.0438-1.658-.1315-.5849-.0876-1.1161-.2118-1.593-.3724-.13-.0438-.231-.0657-.3033-.0657-.2456,0-.3683.168-.3683.5039v.9856c0,.2191.0287.3761.0867.471.0577.0949.1877.186.39.2736,1.0258.4528,2.1818.6792,3.4676.6792,1.3294,0,2.4021-.3323,3.2183-.9966.8165-.6646,1.2247-1.537,1.2247-2.6176,0-.7739-.1916-1.4019-.5745-1.8836-.3829-.482-1.0221-.9053-1.918-1.2704"/>
  <path class="st0" d="M47.942,5.4278c-1.4737,0-2.8607.511-4.1611,1.5333l-.195-.723c-.0723-.3211-.2746-.4817-.6069-.4817h-1.5604c-.1879,0-.3252.0402-.4119.1205-.0867.0801-.13.2225-.13.427v10.0976c0,.1899.0433.3286.13.4163.0867.0874.224.1312.4119.1312h2.0803c.2025,0,.3432-.0438.4228-.1312.0794-.0876.119-.2264.119-.4163v-7.7758c.7804-.4963,1.5677-.7446,2.3624-.7446.5346,0,.9318.1388,1.1921.416.26.2775.39.7157.39,1.3143v6.7901c0,.1899.0433.3286.13.4163.0867.0874.224.1312.4119.1312h2.0806c.2023,0,.3432-.0438.4226-.1312.0794-.0876.1193-.2264.1193-.4163v-7.732c0-1.0368-.2782-1.8362-.8345-2.3985-.5562-.5621-1.3474-.8432-2.3732-.8432"/>
  <path class="st0" d="M37.6205,5.7564h-2.0806c-.1879,0-.3252.0402-.4119.1205-.0867.0803-.13.2227-.13.427v10.0976c0,.1899.0433.3286.13.4163.0867.0876.224.1315.4119.1315h2.0806c.2023,0,.3432-.0438.4226-.1315.0794-.0876.1193-.2264.1193-.4163V6.3039c0-.2042-.0399-.3466-.1193-.427s-.2203-.1205-.4226-.1205"/>
  <path class="st0" d="M36.5829.6091c-.5489,0-.9898.1534-1.3221.4601-.3323.3065-.4983.7227-.4983,1.2485s.166.9418.4983,1.2483c.3323.3067.7731.4601,1.3221.4601s.9898-.1534,1.322-.4601c.3323-.3065.4983-.7227.4983-1.2483s-.166-.9421-.4983-1.2485c-.3323-.3067-.7731-.4601-1.322-.4601"/>
</svg>