<?xml version="1.0" encoding="utf-8"?>
<!-- Generator: Adobe Illustrator 18.0.0, SVG Export Plug-In . SVG Version: 6.00 Build 0)  -->
<!DOCTYPE svg PUBLIC "-//W3C//DTD SVG 1.1//EN" "http://www.w3.org/Graphics/SVG/1.1/DTD/svg11.dtd" [
	<!ENTITY st0 "fill:#CDCCCC;">
	<!ENTITY st1 "fill:#444444;">
	<!ENTITY st2 "fill:#A6C2CC;">
	<!ENTITY st3 "fill:#256A93;">
	<!ENTITY st4 "fill:#002133;">
	<!ENTITY st5 "fill:#FFFFFF;">
]>
<svg version="1.1" id="keepa" xmlns="http://www.w3.org/2000/svg" xmlns:xlink="http://www.w3.org/1999/xlink" x="0px" y="0px"
	 viewBox="0 668.9 599 166" style="enable-background:new 0 668.9 599 166;" xml:space="preserve">
<g>
	<g>
		<path style="&st0;" d="M252.1,788.4h-17.8c0-0.7-3.1-5.4-9.3-14.1c-7.2-10.2-13.7-18.8-19.7-25.4c-8.1-9.1-13.9-13.7-17.8-13.7
			H185c0,12.7,0.2,30.3,0.9,53.2h-15.3c0.9-16.9,1.2-35.4,1.2-55.5c0-19-0.4-35.8-1.2-50.2h15.3c-0.4,14.3-0.9,29.2-0.9,43.9h1.9
			c3.1,0,10.4-7,22.4-20.9c11.8-13.9,17.8-21.5,17.8-23.2H244c0,1.6-5.8,8.3-17.4,20.1c-11.6,11.8-20.1,19.7-25.9,23.8v0.7
			c6.2,2.3,16.6,13.2,31.2,32.3C245.4,777.1,252.1,786.8,252.1,788.4z"/>
		<path style="&st0;" d="M331.5,740.8c0,2.3,0,5.4-0.2,9.5l-55.9,0.9c0.4,7.9,3.7,14.5,9.3,19.9c5.6,5.4,13,8.1,22.2,8.1
			c8.3,0,15.9-0.9,23.2-3.1l-1.4,11.6c-5.4,2.1-13,3.3-22.9,3.3c-14.1,0-24.8-3.9-32.1-11.6c-7.6-8.1-11.4-17.4-11.4-28.4
			c0-11.8,3.5-22,10.2-30.6c6.7-8.5,15.7-12.7,27.3-12.7c10.4,0,18.5,3.1,23.8,9.3C328.6,723.2,331.5,731.1,331.5,740.8z
			 M317.8,740.8c0-15.3-6.4-22.9-19.2-22.9c-13,0-20.5,7.9-22.9,23.8L317.8,740.8z"/>
		<path style="&st0;" d="M416.8,740.8c0,2.3,0,5.4-0.2,9.5l-55.9,0.9c0.4,7.9,3.7,14.5,9.3,19.9c5.6,5.4,13,8.1,22.2,8.1
			c8.3,0,15.9-0.9,23.2-3.1l-1.4,11.6c-5.4,2.1-13,3.3-22.9,3.3c-14.1,0-24.8-3.9-32.1-11.6c-7.4-7.6-11.1-17.1-11.1-28.2
			c0-11.8,3.5-22,10.2-30.6c6.7-8.6,15.7-12.7,27.3-12.7c10.4,0,18.5,3.1,23.8,9.3C414.3,723.4,416.8,731.1,416.8,740.8z
			 M403.1,740.8c0-15.3-6.4-22.9-19.2-22.9c-13,0-20.5,7.9-22.9,23.8L403.1,740.8z"/>
		<path style="&st0;" d="M509.3,746.6c0,11.8-3.3,22-9.9,30.8s-15.9,13.2-28,13.2c-9.9,0-16.4-1.9-19.7-5.4h-1
			c0,15.1,0.2,28.4,0.4,40.2h-15.3c1.2-14.3,1.9-32.1,1.9-53.4c0-26.1-1.4-46.3-4.2-60.6l14.3-2.1l1.2,8.1h0.9
			c5.4-6,13.9-9.3,25.4-9.3c10.4,0,18.5,3.7,24.5,11.4C505.9,727.1,509.3,736.1,509.3,746.6z M495,748.7c0-8.1-2.1-14.9-6.2-20.5
			c-4.2-5.7-10.2-8.5-17.8-8.5c-9.7,0-16.6,3.1-21.1,8.7c0.9,18.2,1.4,33.8,1.4,47c4.4,3.7,10.2,5.6,17.1,5.6
			c9.1,0,15.7-3.3,20.1-9.5C492.7,765,495,757.4,495,748.7z"/>
		<path style="&st0;" d="M589.1,788.4l-12.7,0.4c-0.7-2.5-0.9-5.1-0.9-7.6h-0.9c-6.7,6-15.7,9.1-27.3,9.1c-6.2,0-11.6-1.9-16.2-5.6
			c-4.6-3.7-6.7-8.7-6.7-15.7c0-8.3,3.5-15.1,10.6-20.1c7-5.1,20.1-7.6,39.3-8.1c0.2-1.4,0.2-2.7,0.2-4.4c0-6.7-1.9-11.1-5.4-13.4
			s-9.1-3.3-16.2-3.3c-8.5,0-16.9,1.2-25.2,3.3l1.4-11.4c8.1-2.3,17.6-3.5,28-3.5c9.7,0,17.1,2.1,22.4,6c5.4,3.9,7.9,10.9,7.9,20.3
			c0,2.5-0.2,7.2-0.4,13.9c-0.2,6.7-0.4,11.1-0.4,13.4C587,772,587.7,780.8,589.1,788.4z M574.7,772.7c-0.2-8.3-0.4-15.7-0.4-22.2
			c-10.2,0-18,0.7-23.4,2.3c-8.7,2.7-13.4,7.9-13.4,15.5c0,7.4,5.4,11.1,15.7,11.1C562.3,779.4,569.5,777.1,574.7,772.7z"/>
	</g>
	<g>
		<g>
			<path style="&st1;" d="M248.9,785.1h-17.8c0-0.7-3.1-5.4-9.3-14.1c-7.2-10.2-13.7-18.8-19.7-25.4c-8.1-9.1-13.9-13.7-17.8-13.7
				h-2.5c0,12.7,0.2,30.3,0.9,53.2h-15.3c0.9-16.9,1.2-35.4,1.2-55.5c0-19-0.4-35.8-1.2-50.2h15.3c-0.4,14.3-0.9,29.2-0.9,43.9h1.9
				c3.1,0,10.4-7,22.4-20.9c11.8-13.9,17.8-21.5,17.8-23.2h16.9c0,1.6-5.8,8.3-17.4,20.1c-11.6,11.8-20.1,19.7-25.9,23.8v0.9
				c6.2,2.3,16.6,13.2,31.2,32.3C242.1,773.9,248.9,783.6,248.9,785.1z"/>
			<path style="&st1;" d="M328,737.5c0,2.3,0,5.4-0.2,9.5l-55.9,0.9c0.4,7.9,3.7,14.5,9.3,19.9c5.6,5.4,13,8.1,22.2,8.1
				c8.3,0,15.9-0.9,23.2-3.1l-1.4,11.6c-5.4,2.1-13,3.3-22.9,3.3c-14.1,0-24.8-3.9-32.1-11.6c-7.4-7.6-11.1-17.1-11.1-28.2
				c0-11.8,3.5-22,10.2-30.6c6.7-8.5,15.7-12.7,27.3-12.7c10.4,0,18.5,3.1,23.8,9.3C325.5,720.2,328,727.8,328,737.5z M314.5,737.5
				c0-15.3-6.4-22.9-19.2-22.9c-13,0-20.5,7.9-22.9,23.8L314.5,737.5z"/>
			<path style="&st1;" d="M413.5,737.5c0,2.3,0,5.4-0.2,9.5l-55.9,0.9c0.4,7.9,3.7,14.5,9.3,19.9c5.6,5.4,13,8.1,22.2,8.1
				c8.3,0,15.9-0.9,23.2-3.1l-1.4,11.6c-5.4,2.1-13,3.3-22.9,3.3c-14.1,0-24.8-3.9-32.1-11.6c-7.4-7.6-11.1-17.1-11.1-28.2
				c0-11.8,3.5-22,10.2-30.6c6.7-8.6,15.7-12.7,27.3-12.7c10.4,0,18.5,3.1,23.8,9.3C411,720.2,413.5,727.8,413.5,737.5z
				 M399.9,737.5c0-15.3-6.4-22.9-19.2-22.9c-13,0-20.5,7.9-22.9,23.8L399.9,737.5z"/>
			<path style="&st1;" d="M506.1,743.3c0,11.8-3.3,22-9.9,30.8c-6.7,8.7-15.9,13.2-28,13.2c-9.9,0-16.4-1.9-19.7-5.4h-0.9
				c0,15.1,0.2,28.4,0.4,40.2h-15.3c1.2-14.3,1.9-32.1,1.9-53.4c0-26.1-1.4-46.3-4.2-60.6l14.3-2.1l1.2,8.1h0.9
				c5.4-6,13.9-9.3,25.4-9.3c10.4,0,18.5,3.7,24.5,11.4S506.1,732.9,506.1,743.3z M491.5,745.4c0-8.1-2.1-14.9-6.2-20.5
				c-4.2-5.7-10.2-8.5-17.8-8.5c-9.7,0-16.6,3.1-21.1,8.7c0.9,18.2,1.4,33.8,1.4,47c4.4,3.7,10.2,5.6,17.1,5.6
				c9.1,0,15.7-3.3,20.1-9.5C489.4,761.8,491.5,754.2,491.5,745.4z"/>
			<path style="&st1;" d="M585.8,785.1l-12.7,0.4c-0.7-2.5-0.9-5.1-0.9-7.6h-0.9c-6.7,6-15.7,9.1-27.3,9.1c-6.2,0-11.6-1.9-16.2-5.6
				c-4.6-3.7-6.7-8.7-6.7-15.7c0-8.3,3.5-15.1,10.6-20.1c7-5.1,20.1-7.6,39.3-8.1c0.2-1.4,0.2-2.7,0.2-4.4c0-6.7-1.9-11.1-5.4-13.4
				c-3.5-2.3-9.1-3.3-16.2-3.3c-8.5,0-16.9,1.2-25.2,3.3l1.4-11.4c8.1-2.3,17.6-3.5,28-3.5c9.7,0,17.1,2.1,22.4,6
				c5.4,3.9,7.9,10.9,7.9,20.3c0,2.5-0.2,7.2-0.4,13.9s-0.4,11.1-0.4,13.4C583.8,768.8,584.4,777.5,585.8,785.1z M571.5,769.4
				c-0.2-8.3-0.4-15.7-0.4-22.2c-10.2,0-18,0.7-23.4,2.3c-8.7,2.7-13.4,7.9-13.4,15.5c0,7.4,5.4,11.1,15.7,11.1
				C559,776.2,566.2,773.9,571.5,769.4z"/>
		</g>
	</g>
</g>
<g>
	<g>
		<g>
			<circle style="&st2;" cx="68.7" cy="736.8" r="50.2"/>
		</g>
	</g>
	<g>
		<circle style="&st3;" cx="66.4" cy="734.1" r="50.2"/>
	</g>
</g>
<g>
	<g>
		<path style="&st4;" d="M101.6,745.5H77.9v23.7H56.4v-23.7H32.6V724h23.8v-23.7h21.5V724h23.7C101.6,724,101.6,745.5,101.6,745.5z
			 M57.5,725.1v19.3h19v-19.3H57.5L57.5,725.1z"/>
	</g>
	<g>
		<g>
			<path style="&st5;" d="M100.7,744.4H77v23.7H55.2v-23.7H31.5v-21.5h23.7v-23.7h21.5v23.7h23.7v21.5H100.7z M56.5,724v19.3h19V724
				H56.5L56.5,724z"/>
		</g>
	</g>
</g>
</svg>
