<svg xmlns="http://www.w3.org/2000/svg" width="64" height="64" viewBox="0 0 64 64" fill="none">
  <defs>
    <linearGradient id="hermes-bg" x1="0" y1="0" x2="1" y2="1">
      <stop offset="0" stop-color="#002C51" />
      <stop offset="1" stop-color="#001f3a" />
    </linearGradient>
  </defs>

  <!-- Background -->
  <rect x="1" y="1" width="62" height="62" rx="14" fill="url(#hermes-bg)" />
  <rect x="1" y="1" width="62" height="62" rx="14" fill="none" stroke="#00C2B9" stroke-opacity="0.2" />

  <!-- Hermes: Winged messenger shoe (cleaner silhouette for small sizes) -->
  <path
    d="M16 48h24c10 0 18-7 18-16c0-4.2-1.7-8-4.6-11l-3.2-3.2c-2.5-2.5-5.9-3.9-9.4-3.9H31.1c-4.4 0-8.5 1.8-11.6 4.8l-5.1 5.1c-2.4 2.4-3.8 5.7-3.8 9V48Z"
    fill="#00C2B9"
    opacity="0.14"
  />
  <g fill="none" stroke="#00C2B9" stroke-width="4.6" stroke-linecap="round" stroke-linejoin="round">
    <!-- Wing -->
    <path d="M30.5 26.4c-7.2-3.0-11.8-8.3-13.3-16.0c7.1 0.5 13.2 3.2 18.0 8.0" />
    <path d="M33.8 23.1c-4.3-2.1-7.4-5.0-9.1-8.8c4.6 0.3 8.4 1.7 11.8 4.1" opacity="0.76" />
    <path d="M36.6 20.6c-2.6-1.3-4.4-3.0-5.7-5.2c2.9 0.2 5.2 0.9 7.3 2.1" opacity="0.56" />

    <!-- Shoe -->
    <path d="M16 48h24c10 0 18-7 18-16c0-4.2-1.7-8-4.6-11l-3.2-3.2c-2.5-2.5-5.9-3.9-9.4-3.9H31.1c-4.4 0-8.5 1.8-11.6 4.8l-5.1 5.1c-2.4 2.4-3.8 5.7-3.8 9V48" />
    <path d="M16 48h42" opacity="0.55" />
  </g>
</svg>
