<svg xmlns="http://www.w3.org/2000/svg" width="64" height="64" viewBox="0 0 64 64" fill="none">
  <defs>
    <linearGradient id="xplan-bg" x1="0" y1="0" x2="1" y2="1">
      <stop offset="0" stop-color="#002C51" />
      <stop offset="1" stop-color="#001f3a" />
    </linearGradient>
  </defs>

  <!-- Background -->
  <rect x="1" y="1" width="62" height="62" rx="14" fill="url(#xplan-bg)" />
  <rect x="1" y="1" width="62" height="62" rx="14" fill="none" stroke="#00C2B9" stroke-opacity="0.2" />

  <!-- X-Plan: Two interlocking chain links forming an X -->
  <g fill="none" stroke="#00C2B9" stroke-width="4" stroke-linecap="round">
    <!-- First link (top-left to bottom-right diagonal) -->
    <path d="M16,16 Q32,28 32,32 Q32,36 48,48" />
    <ellipse cx="16" cy="16" rx="6" ry="8" transform="rotate(-45 16 16)" />
    <ellipse cx="48" cy="48" rx="6" ry="8" transform="rotate(-45 48 48)" />

    <!-- Second link (top-right to bottom-left diagonal) -->
    <path d="M48,16 Q32,28 32,32 Q32,36 16,48" />
    <ellipse cx="48" cy="16" rx="6" ry="8" transform="rotate(45 48 16)" />
    <ellipse cx="16" cy="48" rx="6" ry="8" transform="rotate(45 16 48)" />
  </g>
</svg>
